<svg id="圖層_1" data-name="圖層 1" xmlns="http://www.w3.org/2000/svg" viewBox="0 0 50.92 19.91"><defs><style>.cls-1{fill:#2f4a28;}</style></defs><path class="cls-1" d="M195.82,128.2c.36.48,1,1.21,1.92,2.21l2.95,3.26,2.84,3.13c.06-1.06.09-2.44.09-4.13a23.63,23.63,0,0,0-.08-2.55,1.65,1.65,0,0,0-.61-1.09,2,2,0,0,0-1.33-.44c-.24,0-.37-.05-.37-.15a.14.14,0,0,1,.08-.13,11.49,11.49,0,0,1,1.24-.08c.78,0,1.43,0,2,0H206c.19,0,.28.05.28.16s-.08.14-.25.16a2.39,2.39,0,0,0-1.34.46,1.62,1.62,0,0,0-.49,1.05c0,.46-.08,2-.08,4.62l-.09,4.64q0,.36-.18.36l-.13,0a11.33,11.33,0,0,1-.82-.89c-.5-.57-1.11-1.24-1.84-2s-1.31-1.44-1.73-1.93c-.91-1.06-1.49-1.71-1.73-2a15.15,15.15,0,0,1-1.58-1.74c-.1-.18-.2-.26-.28-.26s-.11.11-.11.34l0,1.36q0,2.59.15,4.14a6.62,6.62,0,0,0,.31,1.82,2.07,2.07,0,0,0,.56.54,1.51,1.51,0,0,0,.86.27c.4,0,.61.07.61.21s-.12.16-.35.16h-4.44c-.2,0-.31,0-.31-.15s.1-.18.31-.18a1.9,1.9,0,0,0,1.51-.47,3.66,3.66,0,0,0,.38-2l-.08-3.08a18.14,18.14,0,0,0-.15-3.23,4.15,4.15,0,0,0-.71-1.18,1.89,1.89,0,0,0-1.25-.79c-.21,0-.31-.07-.31-.16s.13-.16.4-.16Z" transform="translate(-191.75 -128.19)"/><path class="cls-1" d="M212.92,138.52a2.92,2.92,0,0,1-1.08.94,3.12,3.12,0,0,1-1.42.31,2.13,2.13,0,0,1-1.46-.47,1.59,1.59,0,0,1-.53-1.25,2,2,0,0,1,.31-1.08,2.11,2.11,0,0,1,.73-.73,10.92,10.92,0,0,1,1.45-.55,5.44,5.44,0,0,0,1.77-.77,1.11,1.11,0,0,0,.29-.8,1.79,1.79,0,0,0-.38-1.23,1.4,1.4,0,0,0-1.1-.43,1.38,1.38,0,0,0-.88.24,1.83,1.83,0,0,0-.45,1c-.11.54-.35.81-.73.81a.77.77,0,0,1-.45-.19.69.69,0,0,1-.24-.57,1.38,1.38,0,0,1,.76-1.15,4,4,0,0,1,2.11-.49,4.14,4.14,0,0,1,1.69.29,1.49,1.49,0,0,1,.8.66,4.3,4.3,0,0,1,.16,1.42l-.06,2.33a7.65,7.65,0,0,0,.17,1.91q.18.57.63.57l.26,0,.16,0q.21,0,.21.15c0,.22-.6.34-1.82.34a.83.83,0,0,1-.7-.24A1.79,1.79,0,0,1,212.92,138.52Zm0-3.43a4,4,0,0,1-1.26.84,5.55,5.55,0,0,0-1.39.9,1.5,1.5,0,0,0-.42,1.06,1.36,1.36,0,0,0,.34.94,1.11,1.11,0,0,0,.87.39,1.77,1.77,0,0,0,1-.32,1.83,1.83,0,0,0,.7-.79,3.53,3.53,0,0,0,.22-1.43Q213,136,212.92,135.09Z" transform="translate(-191.75 -128.19)"/><path class="cls-1" d="M219.83,132.91c-.09,1.29-.13,2.57-.13,3.82a3.26,3.26,0,0,0,.36,1.88,1.28,1.28,0,0,0,1,.44,2.17,2.17,0,0,0,1.08-.34.79.79,0,0,1,.26-.13c.08,0,.12,0,.12.13s-.22.36-.66.66a2.69,2.69,0,0,1-1.61.46,1.66,1.66,0,0,1-1.41-.62,3.05,3.05,0,0,1-.47-1.87c0-.86.05-2.34.16-4.43a6.94,6.94,0,0,0-.88-.07l-.55,0c-.13,0-.2-.05-.2-.13s.07-.14.23-.19a5.9,5.9,0,0,0,1.27-.77,2.51,2.51,0,0,0,1-1.8c0-.21.09-.31.2-.31s.17.08.17.24a1,1,0,0,1,0,.17c0,.23,0,.49,0,.79v1.37l2,0c.34,0,.52,0,.53.11,0,.27,0,.44-.14.51C221.92,132.77,221.12,132.82,219.83,132.91Z" transform="translate(-191.75 -128.19)"/><path class="cls-1" d="M230.3,137.32a2.29,2.29,0,0,1-.79,1.75,2.67,2.67,0,0,1-1.88.74,4,4,0,0,1-1.54-.4,2.41,2.41,0,0,0-.58-.21.33.33,0,0,0-.27.18c-.1.17-.2.25-.28.25s-.13-.08-.15-.25,0-.55,0-1.14,0-.84,0-1,.06-.33.18-.33.12.06.16.17a4.8,4.8,0,0,0,1,1.7,2,2,0,0,0,1.52.7,1.71,1.71,0,0,0,1.09-.37,1.17,1.17,0,0,0,.48-1c0-.64-.59-1.21-1.76-1.71a16.4,16.4,0,0,1-1.61-.75,1.78,1.78,0,0,1-.64-.64,1.81,1.81,0,0,1-.23-.88,1.91,1.91,0,0,1,.72-1.52,2.61,2.61,0,0,1,1.75-.61,3.81,3.81,0,0,1,1.67.45.68.68,0,0,0,.25.07c.07,0,.13-.05.21-.15s.13-.14.17-.14a.15.15,0,0,1,.12.07,3.06,3.06,0,0,1,.1.78q.06.7.06,1.17c0,.18-.05.28-.16.28s-.16-.09-.22-.26a8,8,0,0,0-.44-.9,1.91,1.91,0,0,0-.81-.85,2.25,2.25,0,0,0-.86-.18,1.78,1.78,0,0,0-1.09.31,1,1,0,0,0-.43.8.93.93,0,0,0,.18.55,2.57,2.57,0,0,0,.33.37,17.39,17.39,0,0,0,1.76.81,8.75,8.75,0,0,1,1.31.66,1.81,1.81,0,0,1,.52.63A1.72,1.72,0,0,1,230.3,137.32Z" transform="translate(-191.75 -128.19)"/><path class="cls-1" d="M235,132.26c0,.39.06,1.49.09,3.31,0,1.14,0,1.89.09,2.27a1.49,1.49,0,0,0,.47.94,1.29,1.29,0,0,0,.89.37,2.06,2.06,0,0,0,1.34-.59,2.5,2.5,0,0,0,.82-1.26,17.36,17.36,0,0,0,.16-3.09,3.53,3.53,0,0,0-.15-1.37q-.14-.22-.72-.27-.21,0-.21-.15a.14.14,0,0,1,.07-.13,1.48,1.48,0,0,1,.41,0h1.85c.05.64.08,1.36.08,2.15l-.07,3.3a2.82,2.82,0,0,0,.18,1.29.76.76,0,0,0,.56.3c.16,0,.24.08.24.17s-.15.16-.47.16H239.2c-.26,0-.38-.08-.38-.24a1,1,0,0,1,0-.16c0-.17,0-.35,0-.53s0-.38,0-.67a5.53,5.53,0,0,1-1.46,1.29,3.13,3.13,0,0,1-1.58.43,2.1,2.1,0,0,1-1.18-.32,1.56,1.56,0,0,1-.62-.79,10,10,0,0,1-.21-2.3q-.06-1.83-.06-2.88a2.41,2.41,0,0,0-.06-.71c0-.1-.18-.15-.41-.16s-.37-.08-.37-.18.15-.15.45-.15Z" transform="translate(-191.75 -128.19)"/><path class="cls-1" d="M194.1,145.11a1.05,1.05,0,0,1-.33.78,1.11,1.11,0,0,1-.8.33,1.56,1.56,0,0,1-.65-.18l-.24-.09a.14.14,0,0,0-.12.08c0,.07-.08.11-.12.11s-.05,0-.06-.11,0-.24,0-.51,0-.37,0-.44,0-.14.08-.14,0,0,.07.07a2.23,2.23,0,0,0,.42.76.84.84,0,0,0,.65.31.72.72,0,0,0,.46-.16.56.56,0,0,0,.2-.44c0-.29-.25-.54-.74-.76-.34-.16-.57-.27-.69-.34a.7.7,0,0,1-.26-.28.76.76,0,0,1-.1-.39.88.88,0,0,1,.3-.68,1.09,1.09,0,0,1,.74-.27,1.6,1.6,0,0,1,.71.2l.11,0s.05,0,.08-.06.06-.06.08-.06a.05.05,0,0,1,0,0,1.36,1.36,0,0,1,0,.34c0,.21,0,.38,0,.52s0,.13-.07.13-.07,0-.1-.12a3.06,3.06,0,0,0-.18-.4.86.86,0,0,0-.34-.38,1,1,0,0,0-.37-.08.74.74,0,0,0-.46.14.42.42,0,0,0-.18.35.41.41,0,0,0,.07.25.79.79,0,0,0,.14.16,5.87,5.87,0,0,0,.75.36,3.24,3.24,0,0,1,.55.3.78.78,0,0,1,.22.28A.77.77,0,0,1,194.1,145.11Z" transform="translate(-191.75 -128.19)"/><path class="cls-1" d="M197,144.32c0,.14,0,.24,0,.32a1.4,1.4,0,0,0,.33.94,1,1,0,0,0,.81.38,1.27,1.27,0,0,0,.87-.38c.08-.07.13-.1.15-.1s.06,0,.07.1a1.16,1.16,0,0,1-.51.46,1.66,1.66,0,0,1-.8.19,1.48,1.48,0,0,1-1.1-.47,1.62,1.62,0,0,1-.45-1.18,1.77,1.77,0,0,1,.49-1.28,1.48,1.48,0,0,1,1.06-.51,1.33,1.33,0,0,1,1,.4,1.24,1.24,0,0,1,.43.94.17.17,0,0,1,0,.12s-.11,0-.29,0Zm0-.2c.34,0,.67,0,1,0h.2a.6.6,0,0,0,.36-.09.32.32,0,0,0,.13-.3.83.83,0,0,0-.23-.57.69.69,0,0,0-.53-.24.81.81,0,0,0-.56.28A1.48,1.48,0,0,0,197,144.12Z" transform="translate(-191.75 -128.19)"/><path class="cls-1" d="M202.51,140.8c0,.32,0,.65,0,1v3.61a1,1,0,0,0,.1.48.51.51,0,0,0,.41.18c.09,0,.13,0,.13.07s0,.07-.1.07H203a9,9,0,0,0-1,0,4,4,0,0,0-.55,0h-.08c-.07,0-.11,0-.11-.08s0-.07.1-.07a.5.5,0,0,0,.47-.2,1.58,1.58,0,0,0,.11-.68v-2.22q0-1.08,0-1.29a.63.63,0,0,0-.16-.35.71.71,0,0,0-.39-.18c-.1,0-.15,0-.15-.08s0-.07.13-.07a4.49,4.49,0,0,0,1.07-.17Z" transform="translate(-191.75 -128.19)"/><path class="cls-1" d="M205.88,144.32c0,.14,0,.24,0,.32a1.4,1.4,0,0,0,.33.94,1,1,0,0,0,.81.38,1.27,1.27,0,0,0,.87-.38c.08-.07.13-.1.15-.1s.06,0,.06.1a1.08,1.08,0,0,1-.5.46,1.66,1.66,0,0,1-.8.19,1.47,1.47,0,0,1-1.1-.47,1.62,1.62,0,0,1-.45-1.18,1.77,1.77,0,0,1,.49-1.28,1.46,1.46,0,0,1,1.06-.51,1.33,1.33,0,0,1,.95.4,1.24,1.24,0,0,1,.43.94.17.17,0,0,1,0,.12s-.11,0-.3,0Zm0-.2c.34,0,.66,0,1,0h.21a.6.6,0,0,0,.36-.09.34.34,0,0,0,.13-.3.83.83,0,0,0-.23-.57.71.71,0,0,0-.53-.24.79.79,0,0,0-.56.28A1.48,1.48,0,0,0,205.88,144.12Z" transform="translate(-191.75 -128.19)"/><path class="cls-1" d="M210.23,144.57a1.89,1.89,0,0,1,.46-1.25,1.42,1.42,0,0,1,1.12-.54,1.7,1.7,0,0,1,.82.21.62.62,0,0,1,.39.52.41.41,0,0,1-.07.22.23.23,0,0,1-.18.09c-.14,0-.25-.12-.33-.35s-.33-.54-.63-.54a.76.76,0,0,0-.68.38,2,2,0,0,0-.23,1,2.16,2.16,0,0,0,.32,1.21.94.94,0,0,0,.78.46,1,1,0,0,0,.59-.23.89.89,0,0,0,.32-.57c0-.07,0-.11.09-.11a.06.06,0,0,1,.07.07,1,1,0,0,1-.36.72,1.32,1.32,0,0,1-.94.34,1.39,1.39,0,0,1-1.09-.5A1.64,1.64,0,0,1,210.23,144.57Z" transform="translate(-191.75 -128.19)"/><path class="cls-1" d="M216.4,143.15c0,.58-.05,1.14-.05,1.7a1.54,1.54,0,0,0,.15.84.52.52,0,0,0,.44.19.92.92,0,0,0,.46-.15l.11-.06s.05,0,.05.06-.09.16-.28.3a1.14,1.14,0,0,1-.68.2.7.7,0,0,1-.6-.28,1.43,1.43,0,0,1-.2-.83c0-.38,0-1,.07-2l-.37,0h-.23q-.09,0-.09-.06s0-.06.1-.08a3.33,3.33,0,0,0,.54-.34,1.17,1.17,0,0,0,.44-.81c0-.09,0-.13.08-.13s.08,0,.08.1a.22.22,0,0,1,0,.08c0,.1,0,.22,0,.35v.61l.86,0c.15,0,.22,0,.23.06a.38.38,0,0,1-.06.22Z" transform="translate(-191.75 -128.19)"/><path class="cls-1" d="M225.64,145.11a1,1,0,0,1-.34.78,1.07,1.07,0,0,1-.79.33,1.56,1.56,0,0,1-.65-.18,1.08,1.08,0,0,0-.25-.09.14.14,0,0,0-.11.08c-.05.07-.09.11-.12.11s-.06,0-.06-.11a4.6,4.6,0,0,1,0-.51c0-.22,0-.37,0-.44s0-.14.07-.14.06,0,.07.07a2.25,2.25,0,0,0,.43.76.82.82,0,0,0,.64.31.72.72,0,0,0,.47-.16.56.56,0,0,0,.2-.44c0-.29-.25-.54-.75-.76-.34-.16-.57-.27-.68-.34a.81.81,0,0,1-.27-.28.87.87,0,0,1-.1-.39.89.89,0,0,1,.31-.68,1.07,1.07,0,0,1,.74-.27,1.56,1.56,0,0,1,.7.2l.11,0a.12.12,0,0,0,.09-.06s.05-.06.07-.06a.07.07,0,0,1,.06,0,2.35,2.35,0,0,1,0,.34c0,.21,0,.38,0,.52s0,.13-.07.13-.07,0-.09-.12a2.39,2.39,0,0,0-.19-.4.76.76,0,0,0-.34-.38.94.94,0,0,0-.36-.08.74.74,0,0,0-.46.14.42.42,0,0,0-.18.35.41.41,0,0,0,.07.25.79.79,0,0,0,.14.16,5.35,5.35,0,0,0,.74.36,3.46,3.46,0,0,1,.56.3.78.78,0,0,1,.22.28A.77.77,0,0,1,225.64,145.11Z" transform="translate(-191.75 -128.19)"/><path class="cls-1" d="M228.92,143.38a1.42,1.42,0,0,1,1.12-.59,1.07,1.07,0,0,1,.8.29,1.58,1.58,0,0,1,.27,1l0,1c0,.33,0,.53,0,.6a.27.27,0,0,0,.11.19.34.34,0,0,0,.2.08c.07,0,.1,0,.1.05s0,.07-.17.07h-1.15c-.05,0-.07,0-.07-.07s0-.06.09-.07.29-.09.33-.21a7.53,7.53,0,0,0,.05-1.16,2.8,2.8,0,0,0-.21-1.35.65.65,0,0,0-.55-.3.83.83,0,0,0-.6.26,1.18,1.18,0,0,0-.3.75c0,.33-.05.73-.05,1.21a2.07,2.07,0,0,0,.06.63.33.33,0,0,0,.28.2c.07,0,.1,0,.1.07s0,.06-.09.06l-.79,0-.44,0c-.08,0-.12,0-.12-.07s0,0,.09-.06a.39.39,0,0,0,.26-.11,1.83,1.83,0,0,0,.11-.63c0-.36,0-.83,0-1.4,0-1,0-1.69,0-2a1.45,1.45,0,0,0-.13-.69.52.52,0,0,0-.31-.25c-.07,0-.11,0-.11-.07s0,0,0,0h.25l.82,0v1.95C228.91,143,228.92,143.21,228.92,143.38Z" transform="translate(-191.75 -128.19)"/><path class="cls-1" d="M233.66,144.52a1.71,1.71,0,0,1,.5-1.21,1.62,1.62,0,0,1,1.22-.53,1.66,1.66,0,0,1,1.17.47,1.53,1.53,0,0,1,.49,1.17,1.72,1.72,0,0,1-.52,1.25,1.61,1.61,0,0,1-2.37,0A1.66,1.66,0,0,1,233.66,144.52Zm.64,0a1.9,1.9,0,0,0,.31,1.12.91.91,0,0,0,.77.44.93.93,0,0,0,.73-.41,1.81,1.81,0,0,0,.32-1.11,2,2,0,0,0-.31-1.1.91.91,0,0,0-.79-.48.84.84,0,0,0-.74.44A1.9,1.9,0,0,0,234.3,144.49Z" transform="translate(-191.75 -128.19)"/><path class="cls-1" d="M240.17,142.81a1.62,1.62,0,0,1,0,.3,2.38,2.38,0,0,1,0,.34,3.12,3.12,0,0,1,.6-.47,1,1,0,0,1,.46-.11,1.29,1.29,0,0,1,1,.49,1.75,1.75,0,0,1,.42,1.17,1.57,1.57,0,0,1-.48,1.18,1.61,1.61,0,0,1-1.13.46,1.7,1.7,0,0,1-.89-.27,8.78,8.78,0,0,0-.06,1.06,3.51,3.51,0,0,0,0,.53v.15a.45.45,0,0,0,.39.31q.11,0,.12.09v0l0,0-.76,0H239c-.06,0-.09,0-.09-.07s0-.06.08-.07a.64.64,0,0,0,.45-.16,3.49,3.49,0,0,0,.12-1.11q0-1,0-1.23l0-1.06v-.63a1.64,1.64,0,0,0-.07-.63c0-.09-.16-.14-.34-.16s-.09,0-.09-.06,0,0,0-.06a1.65,1.65,0,0,1,.35,0Zm0,1.74a5.69,5.69,0,0,0,0,.91.62.62,0,0,0,.25.37.84.84,0,0,0,.57.17.86.86,0,0,0,.76-.41,1.61,1.61,0,0,0,.29-1,1.77,1.77,0,0,0-.29-1.08.87.87,0,0,0-.72-.4.76.76,0,0,0-.66.34A1.93,1.93,0,0,0,240.14,144.55Z" transform="translate(-191.75 -128.19)"/></svg>